<svg width="24" height="24" viewBox="0 0 24 24" fill="none" xmlns="http://www.w3.org/2000/svg">
<path d="M20.4702 6.20547L20.4703 6.20557C21.1415 6.67539 21.7063 7.38624 22.1026 8.14541C22.4989 8.90459 22.7602 9.7761 22.7602 10.6V17.38C22.7602 20.3442 20.3544 22.75 17.3902 22.75H6.61023C3.64391 22.75 1.24023 20.3321 1.24023 17.37V10.47C1.24023 9.69666 1.4784 8.86777 1.83737 8.1387C2.19651 7.40929 2.70854 6.7148 3.3188 6.23875C3.31885 6.23871 3.31891 6.23866 3.31896 6.23862L8.3288 2.32875L8.33086 2.32714L8.33087 2.32714C10.1006 0.95592 12.871 0.887133 14.7102 2.17547L20.4702 6.20547ZM20.4702 6.20547L14.7106 2.17576L20.4702 6.20547Z" fill="white" stroke="#D9D9D9" stroke-width="1.5"/>
</svg>
